<?xml version="1.0" encoding="UTF-8"?>
<svg version="1.1" xmlns="http://www.w3.org/2000/svg" width="230" height="61">
<path d="M0 0 C2.50474855 2.18508273 3.42269901 3.65309423 3.9831543 6.9206543 C4.1930323 8.0915284 4.1930323 8.0915284 4.40715027 9.28605652 C4.54478287 10.12365005 4.68241547 10.96124359 4.82421875 11.82421875 C4.97534622 12.68561966 5.12647369 13.54702057 5.28218079 14.43452454 C5.76185568 17.18370812 6.224856 19.93540444 6.6875 22.6875 C7.00997289 24.55292397 7.33352768 26.41816125 7.65820312 28.28320312 C8.45136802 32.85339806 9.22959141 37.42591632 10 42 C11.24028494 38.45783299 12.27411923 35.07740548 12.81640625 31.36328125 C12.94080078 30.53892578 13.06519531 29.71457031 13.19335938 28.86523438 C13.31517578 28.02283203 13.43699219 27.18042969 13.5625 26.3125 C13.81147459 24.62074958 14.06268311 22.92932602 14.31640625 21.23828125 C14.42412354 20.49618408 14.53184082 19.75408691 14.64282227 18.98950195 C15 17 15 17 16 14 C16.99 14 17.98 14 19 14 C21.475 22.415 21.475 22.415 24 31 C24.99 30.01 25.98 29.02 27 28 C30.35546875 27.70703125 30.35546875 27.70703125 34.1875 27.8125 C35.45980469 27.83957031 36.73210937 27.86664062 38.04296875 27.89453125 C39.50669922 27.94673828 39.50669922 27.94673828 41 28 C41 29.32 41 30.64 41 32 C37.04 32 33.08 32 29 32 C28.01 35.3 27.02 38.6 26 42 C24.68 42 23.36 42 22 42 C20.68 37.38 19.36 32.76 18 28 C17.66226563 29.97484375 17.32453125 31.9496875 16.9765625 33.984375 C16.64270593 35.90405025 16.30880417 37.82371794 15.97363281 39.74316406 C15.74252316 41.07350113 15.51365544 42.40422975 15.28710938 43.73535156 C14.96038339 45.65271721 14.62482203 47.56857062 14.2890625 49.484375 C14.09006348 50.63647461 13.89106445 51.78857422 13.68603516 52.97558594 C13.08134759 55.64137582 12.35756304 57.64823653 11 60 C8 58 8 58 7.37348938 56.24093628 C7.25579697 55.5347818 7.13810455 54.82862732 7.0168457 54.10107422 C6.87692703 53.3003952 6.73700836 52.49971619 6.59284973 51.67477417 C6.45521713 50.81014557 6.31758453 49.94551697 6.17578125 49.0546875 C5.94909004 47.72716965 5.94909004 47.72716965 5.71781921 46.37283325 C5.23729052 43.54210452 4.77472064 40.70876994 4.3125 37.875 C3.99010948 35.95683303 3.66655628 34.03886108 3.34179688 32.12109375 C2.54768238 27.41622042 1.76966255 22.70893255 1 18 C0.67 18 0.34 18 0 18 C-0.99 22.62 -1.98 27.24 -3 32 C-7.62 32 -12.24 32 -17 32 C-17 30.68 -17 29.36 -17 28 C-13.37 28 -9.74 28 -6 28 C-5.89042969 27.14019531 -5.78085938 26.28039062 -5.66796875 25.39453125 C-2.61209068 2.61209068 -2.61209068 2.61209068 0 0 Z " fill="#FEFEFE" transform="translate(135,0)"/>
<path d="M0 0 C0.99 0.33 1.98 0.66 3 1 C5.27389443 0.75711625 7.49558505 0.36458204 9.74609375 -0.0390625 C12 0 12 0 14.26953125 0.93359375 C17.01710552 4.21455715 16.42618834 7.55723881 16.25 11.6875 C16.23195313 12.48478516 16.21390625 13.28207031 16.1953125 14.10351562 C16.14822247 16.06952449 16.07647899 18.03491494 16 20 C14.35 20 12.7 20 11 20 C10.67 15.38 10.34 10.76 10 6 C7 4.66666667 7 4.66666667 4 6 C3.67 10.62 3.34 15.24 3 20 C1.35 20 -0.3 20 -2 20 C-2 15.05 -2 10.1 -2 5 C-4.31 5.33 -6.62 5.66 -9 6 C-9 10.62 -9 15.24 -9 20 C-10.65 20 -12.3 20 -14 20 C-14 13.73 -14 7.46 -14 1 C-12.02 1 -10.04 1 -8 1 C-5.2540274 -0.3729863 -3.0410953 -0.12412634 0 0 Z " fill="#FEFEFE" transform="translate(62,13)"/>
<path d="M0 0 C0 1.65 0 3.3 0 5 C-1.12148438 4.93039062 -1.12148438 4.93039062 -2.265625 4.859375 C-8.21801543 4.54063648 -8.21801543 4.54063648 -13.6875 6.5 C-15.56422714 10.07471837 -15.63283163 13.04885892 -15 17 C-14.25463249 19.5771736 -14.25463249 19.5771736 -12 21 C-9.00671452 21.62094752 -6.05113991 21.87206961 -3 22 C-3 19.69 -3 17.38 -3 15 C-4.98 15 -6.96 15 -9 15 C-9 13.68 -9 12.36 -9 11 C-5.37 11 -1.74 11 2 11 C2 15.62 2 20.24 2 25 C-4.26532398 27.50612959 -8.99452734 28.11313802 -15.375 25.75 C-18.08554765 23.94296824 -19.35136518 22.7808869 -21 20 C-21.3984375 16.94140625 -21.3984375 16.94140625 -21.375 13.5625 C-21.38273437 12.45003906 -21.39046875 11.33757813 -21.3984375 10.19140625 C-20.95914093 6.67272686 -20.12246021 4.81500004 -18 2 C-11.98433868 -1.75978833 -6.84287536 -1.02705001 0 0 Z " fill="#FEFEFE" transform="translate(21,7)"/>
<path d="M0 0 C2.7225 -0.103125 5.445 -0.20625 8.25 -0.3125 C9.10110352 -0.35802002 9.95220703 -0.40354004 10.82910156 -0.45043945 C14.84746996 -0.52420154 16.42778774 -0.51454746 19.51953125 2.265625 C21.72855625 6.3456184 21.51149737 8.39652371 21 13 C19.25746655 16.23613354 18.52814056 16.82395315 15 18 C13.43881572 18.06740865 11.8749748 18.08514456 10.3125 18.0625 C9.10013672 18.04896484 9.10013672 18.04896484 7.86328125 18.03515625 C7.24839844 18.02355469 6.63351563 18.01195313 6 18 C6 20.64 6 23.28 6 26 C4.02 26 2.04 26 0 26 C0 17.42 0 8.84 0 0 Z M6 4 C6 6.97 6 9.94 6 13 C10.0100934 13.17864631 10.0100934 13.17864631 14 13 C14.66 12.34 15.32 11.68 16 11 C15.83557723 7.93008319 15.83557723 7.93008319 15 5 C12.04335481 3.5216774 9.25770263 3.93967217 6 4 Z " fill="#FEFEFE" transform="translate(103,7)"/>
<path d="M0 0 C1.12535156 -0.05607422 1.12535156 -0.05607422 2.2734375 -0.11328125 C5.76467848 0.51885374 7.26345728 1.66972277 9.625 4.3125 C9.99733017 7.27922677 10.1058246 9.63106241 9.9375 12.5625 C9.91494141 13.30757812 9.89238281 14.05265625 9.86914062 14.8203125 C9.81043561 16.651909 9.72075757 18.48246653 9.625 20.3125 C7.2087428 20.58898714 4.79588623 20.83428337 2.375 21.0625 C1.69308594 21.14371094 1.01117188 21.22492187 0.30859375 21.30859375 C-3.17477644 21.6129659 -4.9667633 21.60089328 -7.86328125 19.5546875 C-9.375 17.3125 -9.375 17.3125 -9.3125 13.6875 C-8.375 10.3125 -8.375 10.3125 -5.375 8.3125 C-2.89453125 8.1171875 -2.89453125 8.1171875 -0.1875 8.1875 C0.71355469 8.20554687 1.61460938 8.22359375 2.54296875 8.2421875 C3.23003906 8.26539063 3.91710938 8.28859375 4.625 8.3125 C4.295 7.6525 3.965 6.9925 3.625 6.3125 C1.03894668 5.8441735 1.03894668 5.8441735 -1.9375 5.6875 C-2.94941406 5.61273437 -3.96132813 5.53796875 -5.00390625 5.4609375 C-6.17759766 5.38746094 -6.17759766 5.38746094 -7.375 5.3125 C-7.375 3.9925 -7.375 2.6725 -7.375 1.3125 C-4.67288939 0.41179646 -2.80431069 0.09092475 0 0 Z M-3.375 12.3125 C-3.705 13.6325 -4.035 14.9525 -4.375 16.3125 C-1.46017222 17.12217438 0.08613217 17.53095993 2.9375 16.375 C3.494375 16.024375 4.05125 15.67375 4.625 15.3125 C4.625 14.3225 4.625 13.3325 4.625 12.3125 C1.985 12.3125 -0.655 12.3125 -3.375 12.3125 Z " fill="#FEFEFE" transform="translate(34.375,12.6875)"/>
<path d="M0 0 C2.875 1.3125 2.875 1.3125 5 3 C6.1577506 6.47325181 6.06866652 9.36067448 6 13 C-0.435 13.495 -0.435 13.495 -7 14 C-2.14786828 15.61737724 0.18201244 16.22942798 5 16 C5 17.32 5 18.64 5 20 C0.1231798 21.62560673 -4.2272107 21.80931686 -8.875 19.6875 C-11.3438546 17.72693899 -12.82408031 16.09233852 -13.3359375 12.9140625 C-13.40639369 8.78532948 -13.3674057 6.58784911 -11.125 3 C-7.48309983 -0.42767075 -4.9451721 -0.3352659 0 0 Z M-7 5 C-7.33 6.32 -7.66 7.64 -8 9 C-5.03 9 -2.06 9 1 9 C0.67 7.68 0.34 6.36 0 5 C-3.01031744 4.06576355 -3.86650268 3.95550089 -7 5 Z " fill="#FEFEFE" transform="translate(94,13)"/>
<path d="M0 0 C2.875 1.4375 2.875 1.4375 5 4 C5.71152996 7.06221413 5.86026503 9.83267395 6 13 C-0.435 13.495 -0.435 13.495 -7 14 C-1.4278779 15.89604092 -1.4278779 15.89604092 4 16 C4 17.32 4 18.64 4 20 C0.01885272 21.99057364 -4.71330854 21.36363019 -8.875 20.1875 C-11 19 -11 19 -13 16 C-13.64634274 11.07727335 -14.07299241 6.50218937 -11.125 2.375 C-7.2167224 -0.15388551 -4.69956919 -0.39826858 0 0 Z M-8 6 C-8 6.99 -8 7.98 -8 9 C-5.03 9 -2.06 9 1 9 C0.67 7.68 0.34 6.36 0 5 C-4.17810069 3.81068813 -4.17810069 3.81068813 -8 6 Z " fill="#FEFEFE" transform="translate(222,13)"/>
<path d="M0 0 C0.66 0.33 1.32 0.66 2 1 C2 2.65 2 4.3 2 6 C-0.97 5.67 -3.94 5.34 -7 5 C-7 5.66 -7 6.32 -7 7 C-6.37351563 7.18175781 -5.74703125 7.36351562 -5.1015625 7.55078125 C-4.28429687 7.80214844 -3.46703125 8.05351562 -2.625 8.3125 C-1.81289062 8.55613281 -1.00078125 8.79976562 -0.1640625 9.05078125 C2 10 2 10 4 13 C3.875 16.0625 3.875 16.0625 3 19 C-0.33074463 21.93105528 -4.82319194 21.19889562 -9 21 C-9.99 20.67 -10.98 20.34 -12 20 C-12 18.35 -12 16.7 -12 15 C-8.7 15.33 -5.4 15.66 -2 16 C-3.60838293 12.78323414 -6.78593279 12.35329146 -10 11 C-12 9 -12 9 -12.375 6.0625 C-12 3 -12 3 -10.5 1.125 C-6.82909094 -0.52690908 -4.01673077 -0.25914392 0 0 Z " fill="#FEFEFE" transform="translate(203,13)"/>
<path d="M0 0 C1.98 0 3.96 0 6 0 C6 7.59 6 15.18 6 23 C6.99 23 7.98 23 9 23 C8.67 24.65 8.34 26.3 8 28 C5.6568787 27.74438677 3.32156597 27.40729228 1 27 C-0.3308911 24.33821779 -0.11268993 22.31260604 -0.09765625 19.3359375 C-0.09443359 18.21445312 -0.09121094 17.09296875 -0.08789062 15.9375 C-0.07951172 14.761875 -0.07113281 13.58625 -0.0625 12.375 C-0.05798828 11.19164062 -0.05347656 10.00828125 -0.04882812 8.7890625 C-0.03701467 5.85932493 -0.02054258 2.92968728 0 0 Z " fill="#FEFEFE" transform="translate(180,6)"/>
</svg>
