<svg width="25" height="25" viewBox="0 0 25 25" fill="none" xmlns="http://www.w3.org/2000/svg">
<path d="M9.11456 1.06818e-06C10.7703 -0.000824267 12.391 0.47664 13.7818 1.37507C15.1727 2.27351 16.2744 3.55459 16.9544 5.06427C17.6344 6.57395 17.8638 8.24793 17.615 9.8849C17.3662 11.5219 16.6499 13.0521 15.5521 14.2916L23.9583 23.8333L22.7917 24.875L14.4062 15.375C13.3276 16.2181 12.0633 16.7913 10.7184 17.0469C9.3735 17.3025 7.98694 17.2331 6.6743 16.8444C5.36166 16.4558 4.16089 15.7591 3.1719 14.8126C2.18291 13.866 1.4344 12.697 0.988621 11.4026C0.542837 10.1083 0.412668 8.72607 0.609058 7.37127C0.805447 6.01647 1.32268 4.72828 2.11764 3.61379C2.91261 2.4993 3.96227 1.59074 5.17932 0.963975C6.39638 0.337207 7.7456 0.0103283 9.11456 0.0104279V1.06818e-06ZM9.11456 15.625C10.5052 15.625 11.8647 15.2126 13.0209 14.44C14.1772 13.6674 15.0784 12.5693 15.6106 11.2845C16.1428 9.99972 16.2821 8.58592 16.0108 7.22199C15.7395 5.85806 15.0697 4.60527 14.0864 3.62193C13.103 2.63859 11.8503 1.96884 10.4863 1.69754C9.1224 1.42624 7.7086 1.56552 6.4238 2.0977C5.13901 2.62988 4.04089 3.53109 3.26828 4.68737C2.49568 5.84366 2.08331 7.2031 2.08331 8.59375C2.08331 10.4586 2.82412 12.247 4.14274 13.5656C5.46136 14.8842 7.24976 15.625 9.11456 15.625Z" fill="white"/>
</svg>
